<svg width="40" height="40" viewBox="0 0 40 40" fill="none" xmlns="http://www.w3.org/2000/svg">
<path d="M19.76 14.28C22.32 14.4 22.98 16.58 23.02 17.6H26.6C26.44 13.64 23.62 11.22 19.7 11.22C15.28 11.22 12 14 12 20.28C12 24.16 13.86 28.76 19.68 28.76C24.12 28.76 26.5 25.46 26.56 22.86H22.98C22.92 24.04 22.08 25.62 19.72 25.74C17.1 25.66 16 23.62 16 20.28C16 14.5 18.56 14.32 19.76 14.28ZM20 0C8.96 0 0 8.96 0 20C0 31.04 8.96 40 20 40C31.04 40 40 31.04 40 20C40 8.96 31.04 0 20 0ZM20 36C11.18 36 4 28.82 4 20C4 11.18 11.18 4 20 4C28.82 4 36 11.18 36 20C36 28.82 28.82 36 20 36Z" fill="#ffffff"/>
</svg>
