<svg width="40" height="40" viewBox="0 0 40 40" fill="none" xmlns="http://www.w3.org/2000/svg">
<g clip-path="url(#clip0_120_2142)">
<path d="M4.62109 38.2084C4.62109 36.5137 6.00769 35.1271 7.70242 35.1271C7.70242 33.4324 9.08902 32.0458 10.7837 32.0458V38.2084H4.62109ZM35.5268 25.6366L21.5684 11.709L7.60998 25.6366L5.02167 23.0483L21.5684 6.47076L38.1151 23.0483L35.5268 25.6366Z" fill="white"/>
<path d="M32.3545 36.0515V22.3088L21.5698 11.709L10.7852 22.4937V38.2085H34.2032V37.9003C34.2032 36.8835 33.3713 36.0515 32.3545 36.0515Z" fill="white"/>
<path d="M18.1797 24.6506H24.9586V38.2085H18.1797V24.6506Z" fill="#8C1D40"/>
<path d="M24.9592 39.1328H18.1803C17.6564 39.1328 17.2559 38.7323 17.2559 38.2084V24.6506C17.2559 24.1268 17.6564 23.7262 18.1803 23.7262H24.9592C25.483 23.7262 25.8836 24.1268 25.8836 24.6506V38.2084C25.8836 38.7323 25.483 39.1328 24.9592 39.1328ZM19.1047 37.284H24.0348V25.575H19.1047V37.284Z" fill="#C7BCA1"/>
<path d="M38.7944 22.3705L22.2168 5.82373C21.8779 5.48478 21.2616 5.48478 20.9227 5.82373L4.34513 22.3705C3.97537 22.7402 3.97537 23.3257 4.34513 23.6646L6.96426 26.2837C7.14914 26.4686 7.36483 26.5611 7.61134 26.5611C7.85785 26.5611 8.10435 26.4686 8.25842 26.2837L21.5698 13.0032L31.43 22.8635V35.2812C30.5364 35.5894 29.8585 36.3597 29.6428 37.2841H11.7095V28.9645C11.7095 28.4407 11.3089 28.0401 10.7851 28.0401C10.2613 28.0401 9.86071 28.4407 9.86071 28.9645V31.2447C8.35086 31.6144 7.17995 32.7853 6.87182 34.2952C5.36197 34.6033 4.16025 35.805 3.82131 37.2841H1.23299C0.709166 37.2841 0.308594 37.6847 0.308594 38.2085C0.308594 38.7323 0.709166 39.1329 1.23299 39.1329H30.5056C31.0294 39.1329 31.43 38.7323 31.43 38.2085V37.9004C31.43 37.3765 31.8306 36.976 32.3544 36.976C32.8782 36.976 33.2788 37.3765 33.2788 37.9004V38.2085C33.2788 38.7323 33.6794 39.1329 34.2032 39.1329H35.1276C35.6514 39.1329 36.052 38.7323 36.052 38.2085C36.052 37.6847 35.6514 37.2841 35.1276 37.2841H35.066C34.8503 36.3597 34.1724 35.5894 33.2788 35.2812V24.7123L34.8503 26.2837C35.0352 26.4686 35.2509 26.5611 35.4974 26.5611C35.7439 26.5611 35.9904 26.4686 36.1444 26.2837L38.7636 23.6646C39.1333 23.3257 39.1333 22.7402 38.7944 22.3705ZM7.70378 36.0516C8.22761 36.0516 8.62818 35.651 8.62818 35.1272C8.62818 34.2644 9.12119 33.5249 9.86071 33.1859V37.2841H5.76254C6.10149 36.5446 6.84101 36.0516 7.70378 36.0516ZM35.5282 24.3425L22.2168 11.062C22.032 10.8771 21.8163 10.7847 21.5698 10.7847C21.3232 10.7847 21.1076 10.8771 20.9227 11.062L7.61134 24.3425L6.31718 23.0484L21.5698 7.79578L36.8223 23.0484L35.5282 24.3425ZM38.2089 37.2841C37.9638 37.2841 37.7286 37.3815 37.5553 37.5548C37.3819 37.7282 37.2845 37.9633 37.2845 38.2085C37.2845 38.4537 37.3819 38.6888 37.5553 38.8621C37.7286 39.0355 37.9638 39.1329 38.2089 39.1329C38.4541 39.1329 38.6892 39.0355 38.8626 38.8621C39.0359 38.6888 39.1333 38.4537 39.1333 38.2085C39.1333 37.9633 39.0359 37.7282 38.8626 37.5548C38.6892 37.3815 38.4541 37.2841 38.2089 37.2841Z" fill="#CCCCCC"/>
</g>
<defs>
<clipPath id="clip0_120_2142">
<rect width="39.441" height="39.441" fill="white"/>
</clipPath>
</defs>
</svg>
